<?xml version="1.0" encoding="utf-8"?>
<!-- Generator: Adobe Illustrator 24.0.1, SVG Export Plug-In . SVG Version: 6.00 Build 0)  -->
<!DOCTYPE svg PUBLIC "-//W3C//DTD SVG 1.1//EN" "http://www.w3.org/Graphics/SVG/1.1/DTD/svg11.dtd" [
	<!ENTITY ns_extend "http://ns.adobe.com/Extensibility/1.0/">
	<!ENTITY ns_ai "http://ns.adobe.com/AdobeIllustrator/10.0/">
	<!ENTITY ns_graphs "http://ns.adobe.com/Graphs/1.0/">
	<!ENTITY ns_vars "http://ns.adobe.com/Variables/1.0/">
	<!ENTITY ns_imrep "http://ns.adobe.com/ImageReplacement/1.0/">
	<!ENTITY ns_sfw "http://ns.adobe.com/SaveForWeb/1.0/">
	<!ENTITY ns_custom "http://ns.adobe.com/GenericCustomNamespace/1.0/">
	<!ENTITY ns_adobe_xpath "http://ns.adobe.com/XPath/1.0/">
]>
<svg version="1.1" id="Ebene_1" xmlns:x="&ns_extend;" xmlns:i="&ns_ai;" xmlns:graph="&ns_graphs;"
	 xmlns="http://www.w3.org/2000/svg" xmlns:xlink="http://www.w3.org/1999/xlink" x="0px" y="0px" viewBox="0 0 400 400"
	 style="enable-background:new 0 0 400 400;" xml:space="preserve">
<style type="text/css">
	.st0{fill:#E94C0A;}
</style>
<metadata>
	<sfw  xmlns="&ns_sfw;">
		<slices></slices>
		<sliceSourceBounds  bottomLeftOrigin="true" height="344.0772" width="237.5066" x="85.6844" y="-367.8664"></sliceSourceBounds>
	</sfw>
</metadata>
<g>
	<path class="st0" d="M148.8291,309.9428h41.7531v-41.7191h-41.7531V309.9428z M158.6975,278.092h22.0336v21.9997h-22.0336V278.092z
		"/>
	<path class="st0" d="M148.8291,253.422h41.7531v-41.7019h-41.7531V253.422z M158.6975,221.5701h22.0336v22.0008h-22.0336V221.5701z
		"/>
	<path class="st0" d="M148.8291,196.0892h41.7531v-41.7519h-41.7531V196.0892z M158.6975,164.1712h22.0336v22.0681h-22.0336
		V164.1712z"/>
	<path class="st0" d="M323.191,81.8822c0-11.6084-9.4282-21.0205-21.0193-21.0205h-65.3083
		c0-20.4792-14.4977-37.0726-32.4088-37.0726c-17.9272,0-32.4588,16.5934-32.4588,37.0726h-65.291
		c-11.6084,0-21.0205,9.4121-21.0205,21.0205v264.9304c0,11.6417,9.4121,21.0538,21.0205,21.0538h195.4668
		c11.5911,0,21.0027-9.4282,21.0027-21.0538v-7.0589c0.0006-0.0609,0.0167-0.1109,0.0167-0.1724
		C323.191,318.5102,323.191,81.8822,323.191,81.8822z M204.4805,43.4914c8.2708,0,15.0304,7.7726,15.0304,17.4042
		c0,9.5977-6.7423,17.3703-15.0304,17.3703c-8.3387,0-15.0809-7.7726-15.0809-17.3703
		C189.3995,51.264,196.1418,43.4914,204.4805,43.4914z M118.1109,338.3136h-0.5746V90.364h34.1907
		c0,0,1.1579,30.7193,52.1369,30.7193c50.995,0,53.293-30.7193,53.293-30.7193h34.2258c0,0,0,221.8654,0,247.9496h-4.6891H118.1109z
		"/>
</g>
</svg>
