<?xml version="1.0" encoding="utf-8"?>
<!-- Generator: Adobe Illustrator 24.0.1, SVG Export Plug-In . SVG Version: 6.00 Build 0)  -->
<!DOCTYPE svg PUBLIC "-//W3C//DTD SVG 1.1//EN" "http://www.w3.org/Graphics/SVG/1.1/DTD/svg11.dtd" [
	<!ENTITY ns_extend "http://ns.adobe.com/Extensibility/1.0/">
	<!ENTITY ns_ai "http://ns.adobe.com/AdobeIllustrator/10.0/">
	<!ENTITY ns_graphs "http://ns.adobe.com/Graphs/1.0/">
	<!ENTITY ns_vars "http://ns.adobe.com/Variables/1.0/">
	<!ENTITY ns_imrep "http://ns.adobe.com/ImageReplacement/1.0/">
	<!ENTITY ns_sfw "http://ns.adobe.com/SaveForWeb/1.0/">
	<!ENTITY ns_custom "http://ns.adobe.com/GenericCustomNamespace/1.0/">
	<!ENTITY ns_adobe_xpath "http://ns.adobe.com/XPath/1.0/">
]>
<svg version="1.1" id="Ebene_1" xmlns:x="&ns_extend;" xmlns:i="&ns_ai;" xmlns:graph="&ns_graphs;"
	 xmlns="http://www.w3.org/2000/svg" xmlns:xlink="http://www.w3.org/1999/xlink" x="0px" y="0px" viewBox="0 0 510 500"
	 style="enable-background:new 0 0 510 500;" xml:space="preserve">
<style type="text/css">
	.st0{fill:#FFFFFF;}
	.st1{fill:#E3000F;}
</style>
<metadata>
	<sfw  xmlns="&ns_sfw;">
		<slices></slices>
		<sliceSourceBounds  bottomLeftOrigin="true" height="17547.6641" width="16383" x="-5470" y="-9515.2148"></sliceSourceBounds>
	</sfw>
</metadata>
<g>
	<path class="st0" d="M248.5334,481.4652c-57.8716,0-112.2788-22.5361-153.2002-63.4575S31.8756,322.679,31.8756,264.8075
		c0-57.8711,22.5361-112.2788,63.4575-153.1997c40.9214-40.9214,95.3291-63.4575,153.2002-63.4575
		s112.2788,22.5361,153.2002,63.4575c40.9214,40.9209,63.4575,95.3286,63.4575,153.1997
		c0,57.8716-22.5361,112.2788-63.4575,153.2002S306.4049,481.4652,248.5334,481.4652z"/>
	<path class="st1" d="M248.5334,49.9001c29.0139,0,57.158,5.6816,83.6506,16.8871c25.5906,10.8239,48.5741,26.3201,68.312,46.0579
		c19.7378,19.7379,35.2339,42.7213,46.0579,68.312c11.2054,26.4926,16.8871,54.6368,16.8871,83.6507
		c0,29.0139-5.6816,57.1581-16.8871,83.6507c-10.824,25.5906-26.3201,48.5741-46.0579,68.312
		c-19.7379,19.7379-42.7214,35.234-68.312,46.0579c-26.4926,11.2054-54.6368,16.8871-83.6506,16.8871
		s-57.1581-5.6816-83.6507-16.8871c-25.5906-10.8239-48.5741-26.3201-68.312-46.0579
		c-19.7378-19.7379-35.234-42.7213-46.0579-68.312c-11.2054-26.4926-16.8871-54.6368-16.8871-83.6507
		c0-29.0139,5.6816-57.1581,16.8871-83.6507c10.8239-25.5906,26.3201-48.5741,46.0579-68.312
		c19.7379-19.7379,42.7214-35.234,68.312-46.0579C191.3753,55.5817,219.5195,49.9001,248.5334,49.9001 M248.5334,46.4001
		c-120.6232,0-218.4077,97.7844-218.4077,218.4076s97.7844,218.4077,218.4077,218.4077s218.4076-97.7845,218.4076-218.4077
		S369.1565,46.4001,248.5334,46.4001L248.5334,46.4001z"/>
</g>
<g>
	<polygon class="st1" points="18.3551,314.0425 479.2475,314.0425 498.975,231.5287 18.3551,231.5287 	"/>
</g>
<g>
	<path class="st0" d="M171.3673,257.8252l9.6128,23.4526h0.4092l9.6128-23.4526h9.1016v34.9062h-7.1582v-22.7197h-0.29
		l-9.0332,22.5493h-4.8745l-9.0337-22.6348h-0.2896v22.8052h-7.1587v-34.9062H171.3673z"/>
	<path class="st0" d="M221.9069,293.2085c-9.3062,0-16.3452-6.562-16.3452-17.9302c0-11.4194,7.0391-17.9302,16.3452-17.9302
		c9.2549,0,16.3452,6.5107,16.3452,17.9302S231.1618,293.2085,221.9069,293.2085z M221.9069,263.876
		c-5.3691,0-8.8628,4.0054-8.8628,11.4023s3.4937,11.4023,8.8628,11.4023c5.3516,0,8.8628-4.0054,8.8628-11.4023
		S227.2585,263.876,221.9069,263.876z"/>
	<path class="st0" d="M243.7091,292.7314v-34.9062h12.4766c10.5332,0,16.9756,6.5449,16.9756,17.4189
		c0,10.9082-6.4424,17.4873-17.0781,17.4873H243.7091z M255.7765,286.4082c6.562,0,10.022-3.375,10.022-11.1641
		c0-7.7549-3.46-11.0957-10.0049-11.0957h-4.7041v22.2598H255.7765z"/>
	<path class="st0" d="M307.5592,257.8252v22.6685c0,7.6357-5.7949,12.7319-14.4702,12.7319
		c-8.7095,0-14.4707-5.0962-14.4707-12.7319v-22.6685h7.3804v22.0381c0,3.9883,2.812,6.8687,7.0903,6.8687
		c4.2949,0,7.0903-2.8804,7.0903-6.8687v-22.0381H307.5592z"/>
	<path class="st0" d="M313.6295,257.8252h7.3804v28.8213h14.9644v6.085h-22.3447V257.8252z"/>
</g>
<g>
	<circle class="st1" cx="248.5334" cy="73.8682" r="59.2154"/>
	<g>
		<g>
			<g>
				<path class="st0" d="M248.5509,115.0693l-10.2144-7.1494l-14.166-0.2451l-4.6157-13.3794l-10.437-7.8677l3.8384-12.5376
					l-3.8618-12.5708l10.4932-7.8989l4.5942-13.3594l14.1328-0.2314l10.2246-7.1636l10.2231,7.1636l14.1548,0.231l4.6069,13.3911
					l10.4473,7.8672l-3.8389,12.543l3.8384,12.5552l-10.4688,7.8955l-4.5942,13.3623l-14.1333,0.2451L248.5509,115.0693z
					 M226.6803,104.2178l12.7871,0.2212l9.0845,6.3589l9.0928-6.3584l12.7505-0.2217l4.145-12.0557l9.3672-7.0645l-3.4351-11.2368
					l3.4346-11.2217l-9.3438-7.0361l-4.1567-12.0825l-12.7739-0.2085l-9.0933-6.3726l-9.0947,6.3726l-12.751,0.208l-4.145,12.0518
					l-9.3877,7.0669l3.4565,11.2495l-3.4351,11.2202l9.3325,7.0356L226.6803,104.2178z"/>
			</g>
		</g>
		<g>
			<g>
				<path class="st0" d="M248.5392,100.6592c-14.7637,0-26.7749-12.019-26.7749-26.793c0-14.7637,12.0112-26.7749,26.7749-26.7749
					c6.6934,0,13.1182,2.5093,18.0918,7.0649l1.2593,1.1538l-19.9761,22.9043l-9.3076-8.4839
					c-0.6528-0.5962-1.5093-0.9072-2.3823-0.8599c-0.8857,0.0405-1.7002,0.4224-2.2935,1.0742
					c-0.6035,0.6572-0.9106,1.5034-0.8691,2.3892c0.041,0.8813,0.4233,1.6919,1.0757,2.2812l11.8135,10.7632
					c0.6143,0.5693,1.4033,0.8774,2.2319,0.8774c0.0454,0,0.083,0.002,0.1284-0.002c0.9497-0.0615,1.7739-0.4619,2.3628-1.1304
					l21.3105-24.4141l1.1079,2.5234c1.4746,3.3569,2.2222,6.9346,2.2222,10.6333
					C275.3146,88.6401,263.3034,100.6592,248.5392,100.6592z M248.5392,50.5913c-12.834,0-23.2749,10.4409-23.2749,23.2749
					c0,12.8438,10.4409,23.293,23.2749,23.293s23.2754-10.4492,23.2754-23.293c0-2.2476-0.3174-4.4429-0.9463-6.5557
					l-17.562,20.1201c-1.2065,1.3726-2.8853,2.1938-4.7271,2.313c-0.1104,0.0103-0.2402,0.0122-0.3965,0.0122
					c-1.7139,0-3.3477-0.6396-4.6001-1.8008l-11.7969-10.7476c-1.3447-1.2148-2.1353-2.8896-2.2202-4.7109
					c-0.085-1.8247,0.5479-3.5698,1.7822-4.9136c1.2178-1.3384,2.894-2.125,4.7148-2.209c1.8213-0.0854,3.561,0.5449,4.9028,1.771
					l6.6626,6.0723l15.3394-17.5874C258.8498,52.3691,253.7882,50.5913,248.5392,50.5913z"/>
			</g>
		</g>
	</g>
</g>
<g>
	<path class="st1" d="M87.4567,198.9312h0.2241l5.8579-18.377h5.6689l-8.3379,24.1875h-6.5903l-8.3496-24.1875h5.6807
		L87.4567,198.9312z"/>
	<path class="st1" d="M107.4093,204.7417h-5.1143v-24.1875h5.1143V204.7417z"/>
	<path class="st1" d="M127.966,189.022c-0.3896-2.6572-2.4092-4.2749-5.2085-4.2749c-3.7437,0-6.2002,2.8696-6.2002,7.9009
		c0,5.1729,2.4922,7.9009,6.165,7.9009c2.728,0,4.7593-1.4878,5.2437-4.0742l5.1728,0.0234
		c-0.5552,4.4526-4.2988,8.5742-10.4995,8.5742c-6.4717,0-11.2666-4.5352-11.2666-12.4243c0-7.9131,4.8774-12.4243,11.2666-12.4243
		c5.5981,0,9.8262,3.2124,10.4995,8.7983H127.966z"/>
	<path class="st1" d="M136.0729,180.5542h19.8647v4.2163h-7.4048v19.9712h-5.0552v-19.9712h-7.4048V180.5542z"/>
	<path class="st1" d="M169.2272,205.0723c-6.4482,0-11.3257-4.5469-11.3257-12.4243c0-7.9131,4.8774-12.4243,11.3257-12.4243
		c6.4131,0,11.3262,4.5112,11.3262,12.4243S175.6403,205.0723,169.2272,205.0723z M169.2272,184.7471
		c-3.7202,0-6.1411,2.7754-6.1411,7.9009s2.4209,7.9009,6.1411,7.9009c3.7085,0,6.1416-2.7754,6.1416-7.9009
		S172.9357,184.7471,169.2272,184.7471z"/>
	<path class="st1" d="M184.5158,180.5542h9.543c5.4917,0,8.6685,3.0942,8.6685,7.9009c0,3.3071-1.5234,5.7046-4.2749,6.8857
		l5.1372,9.4009h-5.645l-4.5825-8.5742H189.63v8.5742h-5.1143V180.5542z M193.1022,192.0576c2.9287,0,4.3579-1.2051,4.3579-3.6025
		c0-2.4092-1.4292-3.7202-4.3818-3.7202H189.63v7.3228H193.1022z"/>
	<path class="st1" d="M211.6359,204.7417h-5.1143v-24.1875h5.1143V204.7417z"/>
	<path class="st1" d="M214.7135,204.7417l8.3496-24.1875h6.5903l8.3379,24.1875h-5.48l-1.7949-5.5156h-8.728l-1.7949,5.5156
		H214.7135z M229.4289,195.2344l-2.9761-9.1528h-0.189l-2.9761,9.1528H229.4289z"/>
	<path class="st1" d="M255.4577,212.5366h-4.7715v-39.7773h4.7715V212.5366z"/>
	<path class="st1" d="M268.1335,204.7417l8.3496-24.1875h6.5903l8.3379,24.1875h-5.48l-1.7949-5.5156h-8.728l-1.7949,5.5156
		H268.1335z M282.8488,195.2344l-2.9761-9.1528h-0.189l-2.9761,9.1528H282.8488z"/>
	<path class="st1" d="M292.821,195.7422c0-5.5625,3.4014-9.3774,8.9053-9.3774c4.7358,0,7.9126,2.752,8.1255,6.9448h-4.748
		c-0.2715-1.8071-1.4526-3.0234-3.2949-3.0234c-2.3384,0-3.874,1.9604-3.874,5.3853c0,3.4722,1.5239,5.4443,3.874,5.4443
		c1.7241,0,3-1.0864,3.2949-3.0234h4.748c-0.2363,4.1694-3.2715,7.0039-8.1021,7.0039
		C296.1632,205.0962,292.821,201.2578,292.821,195.7422z"/>
	<path class="st1" d="M312.4162,199.6753c0-4.0513,3.2246-5.2559,6.8149-5.5864c3.1533-0.3071,4.3931-0.4604,4.3931-1.6299v-0.0708
		c0-1.4883-0.98-2.3501-2.6924-2.3501c-1.8071,0-2.8818,0.8857-3.2246,2.0903l-4.6528-0.3779
		c0.6968-3.3071,3.5547-5.3857,7.9009-5.3857c4.0391,0,7.7002,1.8188,7.7002,6.1416v12.2354h-4.7715v-2.5156h-0.1416
		c-0.8857,1.689-2.6216,2.8579-5.3027,2.8579C314.9792,205.084,312.4162,203.2656,312.4162,199.6753z M323.6598,198.2578v-1.9248
		c-0.6025,0.4014-2.3975,0.6611-3.4961,0.8145c-1.7715,0.248-2.9404,0.9448-2.9404,2.3623c0,1.3818,1.1099,2.1021,2.6572,2.1021
		C322.089,201.6118,323.6598,200.1592,323.6598,198.2578z"/>
	<path class="st1" d="M332.0705,195.6948c0-6.2358,3.3662-9.3301,7.3462-9.3301c3.0352,0,4.4878,1.8071,5.1611,3.2832h0.1533
		v-9.0938h5.0195v24.1875h-4.9604v-2.9053h-0.2124c-0.6968,1.5117-2.2207,3.2007-5.1494,3.2007
		C335.2946,205.0371,332.0705,201.7656,332.0705,195.6948z M344.8376,195.6714c0-3.2358-1.3701-5.3027-3.8149-5.3027
		c-2.4917,0-3.8145,2.1611-3.8145,5.3027c0,3.165,1.3462,5.3618,3.8145,5.3618
		C343.444,201.0332,344.8376,198.9072,344.8376,195.6714z"/>
	<path class="st1" d="M353.32,195.7539c0-5.5981,3.4604-9.3892,8.7988-9.3892c4.7949,0,8.5269,3.0474,8.5269,9.2124v1.3813h-12.3535
		v0.0122c0,2.7046,1.5942,4.3696,4.1099,4.3696c1.6772,0,2.9766-0.7202,3.4844-2.1021l4.6533,0.3066
		c-0.709,3.3662-3.7324,5.5513-8.2202,5.5513C356.7331,205.0962,353.32,201.5059,353.32,195.7539z M365.9098,193.8408
		c-0.0117-2.1611-1.5234-3.7202-3.7085-3.7202c-2.2319,0-3.8027,1.6533-3.9092,3.7202H365.9098z"/>
	<path class="st1" d="M374.1086,186.6011h4.7949v3.2007h0.2124c0.7559-2.1377,2.6104-3.437,5.0552-3.437
		c2.4917,0,4.3462,1.3345,4.9248,3.437h0.189c0.7441-2.0786,2.8105-3.437,5.4683-3.437c3.3774,0,5.7158,2.2441,5.7158,6.1768
		v12.2002h-5.019v-11.208c0-2.0195-1.2046-3.0234-2.811-3.0234c-1.8306,0-2.9053,1.2754-2.9053,3.1533v11.0781h-4.8774v-11.3145
		c0-1.7832-1.1104-2.917-2.7637-2.917c-1.6772,0-2.9526,1.3345-2.9526,3.3423v10.8892h-5.0312V186.6011z"/>
	<path class="st1" d="M403.9025,211.0249l1.1338-3.7559c1.7715,0.5435,3.0352,0.4604,3.6968-1.2402l0.2949-0.7676l-6.5073-18.6602
		h5.291l3.7559,13.3218h0.189l3.791-13.3218h5.3262l-7.0508,20.1011c-1.0273,2.9292-3.0112,4.8423-6.7554,4.8423
		C405.7921,211.5444,404.6227,211.332,403.9025,211.0249z"/>
</g>
</svg>
