<?xml version="1.0" encoding="utf-8"?>
<!-- Generator: Adobe Illustrator 24.0.1, SVG Export Plug-In . SVG Version: 6.00 Build 0)  -->
<!DOCTYPE svg PUBLIC "-//W3C//DTD SVG 1.1//EN" "http://www.w3.org/Graphics/SVG/1.1/DTD/svg11.dtd" [
	<!ENTITY ns_extend "http://ns.adobe.com/Extensibility/1.0/">
	<!ENTITY ns_ai "http://ns.adobe.com/AdobeIllustrator/10.0/">
	<!ENTITY ns_graphs "http://ns.adobe.com/Graphs/1.0/">
	<!ENTITY ns_vars "http://ns.adobe.com/Variables/1.0/">
	<!ENTITY ns_imrep "http://ns.adobe.com/ImageReplacement/1.0/">
	<!ENTITY ns_sfw "http://ns.adobe.com/SaveForWeb/1.0/">
	<!ENTITY ns_custom "http://ns.adobe.com/GenericCustomNamespace/1.0/">
	<!ENTITY ns_adobe_xpath "http://ns.adobe.com/XPath/1.0/">
]>
<svg version="1.1" id="Ebene_1" xmlns:x="&ns_extend;" xmlns:i="&ns_ai;" xmlns:graph="&ns_graphs;"
	 xmlns="http://www.w3.org/2000/svg" xmlns:xlink="http://www.w3.org/1999/xlink" x="0px" y="0px" viewBox="0 0 400 400"
	 style="enable-background:new 0 0 400 400;" xml:space="preserve">
<style type="text/css">
	.st0{fill:#E94C0A;}
</style>
<metadata>
	<sfw  xmlns="&ns_sfw;">
		<slices></slices>
		<sliceSourceBounds  bottomLeftOrigin="true" height="276.1333" width="378.3912" x="10.8044" y="-338.0667"></sliceSourceBounds>
	</sfw>
</metadata>
<g>
	<g>
		<path class="st0" d="M156.0475,80.9283L91.5623,62.2889c-4.7574-1.3749-9.7564,1.3568-11.1313,6.1332l-69.2787,239.504
			c-1.3568,4.7754,1.3749,9.7554,6.0951,11.1313l64.5213,18.6765c4.7574,1.3188,9.7564-1.3939,11.1132-6.1513l69.2787-239.522
			C163.5546,87.2841,160.8229,82.2851,156.0475,80.9283z M133.5613,149.873l-0.353,1.1713
			c-0.725,2.6384-4.1817,3.9391-7.7126,2.9172l-47.0903-13.6403c-3.4748-1.0219-5.686-3.9391-4.9619-6.5414l0.3159-1.2074
			c0.7621-2.6204,4.2369-3.8839,7.6936-2.8991l47.1655,13.6584C132.0932,144.3164,134.3235,147.2527,133.5613,149.873z
			 M139.7307,128.521l-0.334,1.2074c-0.7621,2.6204-4.2188,3.9029-7.6936,2.8811l-47.1274-13.6403
			c-3.4938-1.0038-5.687-3.921-4.9619-6.5414l0.353-1.1713c0.7431-2.6575,4.2179-3.9391,7.6936-2.9172l47.1084,13.6032
			C138.2816,122.9644,140.4747,125.9006,139.7307,128.521z"/>
	</g>
	<g>
		<path class="st0" d="M193.6412,70.7637h-3.2892c-3.6232,0-6.5595,2.9543-6.5595,6.5785v254.129
			c0,3.6422,2.9362,6.5595,6.5595,6.5595h3.2892c3.6432,0,6.5785-2.9172,6.5785-6.5595V77.3422
			C200.2387,73.718,197.2844,70.7637,193.6412,70.7637z"/>
	</g>
	<g>
		<path class="st0" d="M269.2947,70.7637h-3.2702c-3.6051,0-6.5785,2.9543-6.5785,6.5785v254.129
			c0,3.6422,2.9734,6.5595,6.5785,6.5595h3.2702c3.6242,0,6.5785-2.9172,6.5785-6.5595V77.3422
			C275.9103,73.718,272.9189,70.7637,269.2947,70.7637z"/>
	</g>
	<g>
		<path class="st0" d="M218.0417,70.7637h-1.6908c-1.8592,0-3.3825,2.9543-3.3825,6.5785v254.129
			c0,3.6422,1.5233,6.5595,3.3825,6.5595h1.6908c1.8582,0,3.3454-2.9172,3.3454-6.5595V77.3422
			C221.3871,73.718,219.8999,70.7637,218.0417,70.7637z"/>
	</g>
	<g>
		<path class="st0" d="M242.4793,70.7637h-1.6727c-1.8582,0-3.3635,2.9543-3.3635,6.5785v254.129
			c0,3.6422,1.5052,6.5595,3.3635,6.5595h1.6727c1.8392,0,3.3635-2.9172,3.3635-6.5595V77.3422
			C245.8428,73.718,244.3185,70.7637,242.4793,70.7637z"/>
	</g>
	<g>
		<path class="st0" d="M389.1024,79.2375c0-4.98-4.0514-9.0133-8.9943-9.0133l-67.1236,0.019c-4.98,0-8.9753,4.0695-8.9753,9.0124
			l0.0923,249.3346c0.019,4.981,4.0323,8.9762,8.9943,8.9762l67.1055-0.019c4.98,0,8.9943-4.0323,8.9943-8.9753L389.1024,79.2375z
			 M315.4374,120.4925c0-2.7317,2.9553-4.9429,6.5975-4.9429l49.0418-0.0371c3.6232,0,6.5785,2.1931,6.5785,4.9619v1.2264
			c0,2.6755-2.9553,4.9429-6.5785,4.9429h-49.0418c-3.6422,0-6.5975-2.1741-6.5975-4.9429V120.4925z M371.1138,148.8882h-49.0789
			c-3.6241,0-6.5785-2.1931-6.5785-4.9429v-1.2455c0-2.6946,2.9543-4.9429,6.5785-4.9429l49.0599-0.019
			c3.6051,0,6.5785,2.2122,6.5785,4.9619v1.2455C377.6732,146.658,374.6999,148.8882,371.1138,148.8882z"/>
	</g>
</g>
</svg>
