<?xml version="1.0" encoding="utf-8"?>
<!-- Generator: Adobe Illustrator 24.0.1, SVG Export Plug-In . SVG Version: 6.00 Build 0)  -->
<!DOCTYPE svg PUBLIC "-//W3C//DTD SVG 1.1//EN" "http://www.w3.org/Graphics/SVG/1.1/DTD/svg11.dtd" [
	<!ENTITY ns_extend "http://ns.adobe.com/Extensibility/1.0/">
	<!ENTITY ns_ai "http://ns.adobe.com/AdobeIllustrator/10.0/">
	<!ENTITY ns_graphs "http://ns.adobe.com/Graphs/1.0/">
	<!ENTITY ns_vars "http://ns.adobe.com/Variables/1.0/">
	<!ENTITY ns_imrep "http://ns.adobe.com/ImageReplacement/1.0/">
	<!ENTITY ns_sfw "http://ns.adobe.com/SaveForWeb/1.0/">
	<!ENTITY ns_custom "http://ns.adobe.com/GenericCustomNamespace/1.0/">
	<!ENTITY ns_adobe_xpath "http://ns.adobe.com/XPath/1.0/">
]>
<svg version="1.1" id="Ebene_1" xmlns:x="&ns_extend;" xmlns:i="&ns_ai;" xmlns:graph="&ns_graphs;"
	 xmlns="http://www.w3.org/2000/svg" xmlns:xlink="http://www.w3.org/1999/xlink" x="0px" y="0px" viewBox="0 0 400 400"
	 style="enable-background:new 0 0 400 400;" xml:space="preserve">
<style type="text/css">
	.st0{fill:#E94C0A;}
</style>
<metadata>
	<sfw  xmlns="&ns_sfw;">
		<slices></slices>
		<sliceSourceBounds  bottomLeftOrigin="true" height="309.0105" width="348" x="26" y="45.4948"></sliceSourceBounds>
	</sfw>
</metadata>
<g>
	<g>
		<path class="st0" d="M199.9991,128.5241L74.0885,216.2207c-0.4245,0.31-0.8972,0.5222-1.2648,0.7829V328.966
			c0,6.5664,0,25.5392,0,25.5392s17.9936,0,25.4939,0h62.8675v-70.2519c0-9.3837,7.6458-17.0203,17.0161-17.0203h43.6123
			c9.367,0,17.0036,7.6366,17.0036,17.0203v70.2519h61.6728c6.4893,0,25.5954,0,25.5954,0s0-17.9449,0-25.5392V216.3836
			c-0.0529,0-0.1138-0.0652-0.1631-0.1144L199.9991,128.5241z"/>
	</g>
	<g>
		<path class="st0" d="M326.0853,62.5476c0-9.3669-7.7021-17.0529-17.069-17.0529h-25.0086
			c-8.9139,0-16.1714,6.9515-16.8616,15.6818l58.9392,41.0748V62.5476z"/>
	</g>
	<g>
		<path class="st0" d="M340.507,195.3002c3.7415,2.5943,8.0126,3.8509,12.166,3.8509c6.7477,0,13.3733-3.215,17.4848-9.1222
			c6.7442-9.677,4.374-22.9599-5.2587-29.6508L199.9991,45.4947L35.1118,160.3782c-9.6366,6.6908-11.9988,19.9739-5.308,29.6508
			c4.145,5.9564,10.7949,9.1222,17.4856,9.1222c4.2101,0,8.4161-1.2566,12.1609-3.8509l140.5488-97.8957L340.507,195.3002z"/>
	</g>
</g>
</svg>
