<?xml version="1.0" encoding="utf-8"?>
<!-- Generator: Adobe Illustrator 24.0.1, SVG Export Plug-In . SVG Version: 6.00 Build 0)  -->
<!DOCTYPE svg PUBLIC "-//W3C//DTD SVG 1.1//EN" "http://www.w3.org/Graphics/SVG/1.1/DTD/svg11.dtd" [
	<!ENTITY ns_extend "http://ns.adobe.com/Extensibility/1.0/">
	<!ENTITY ns_ai "http://ns.adobe.com/AdobeIllustrator/10.0/">
	<!ENTITY ns_graphs "http://ns.adobe.com/Graphs/1.0/">
	<!ENTITY ns_vars "http://ns.adobe.com/Variables/1.0/">
	<!ENTITY ns_imrep "http://ns.adobe.com/ImageReplacement/1.0/">
	<!ENTITY ns_sfw "http://ns.adobe.com/SaveForWeb/1.0/">
	<!ENTITY ns_custom "http://ns.adobe.com/GenericCustomNamespace/1.0/">
	<!ENTITY ns_adobe_xpath "http://ns.adobe.com/XPath/1.0/">
]>
<svg version="1.1" id="Ebene_1" xmlns:x="&ns_extend;" xmlns:i="&ns_ai;" xmlns:graph="&ns_graphs;"
	 xmlns="http://www.w3.org/2000/svg" xmlns:xlink="http://www.w3.org/1999/xlink" x="0px" y="0px" viewBox="0 0 505.1 218.8"
	 style="enable-background:new 0 0 505.1 218.8;" xml:space="preserve">
<style type="text/css">
	.st0{fill:#FFFFFF;}
	.st1{fill:#0F225A;}
	.st2{fill:#E94C0A;}
	.st3{fill-rule:evenodd;clip-rule:evenodd;fill:#0F225A;}
</style>
<metadata>
	<sfw  xmlns="&ns_sfw;">
		<slices></slices>
		<sliceSourceBounds  bottomLeftOrigin="true" height="212.6" width="498.6" x="2.4" y="3.1"></sliceSourceBounds>
	</sfw>
</metadata>
<g>
	
		<ellipse transform="matrix(0.2268 -0.9739 0.9739 0.2268 -22.4755 190.3657)" class="st0" cx="108.7" cy="109.3" rx="105" ry="105"/>
	<path class="st1" d="M108.7,5.5c57.2,0,103.8,46.6,103.8,103.8s-46.6,103.8-103.8,103.8S4.9,166.6,4.9,109.3S51.4,5.5,108.7,5.5
		 M108.7,3C49.9,3,2.4,50.6,2.4,109.3s47.6,106.3,106.3,106.3S215,168,215,109.3S167.4,3,108.7,3L108.7,3z"/>
</g>
<g>
	<g>
		<polygon class="st1" points="40.2,83.4 55,83.4 55,142.7 40.2,142.7 		"/>
		<g>
			<path class="st2" d="M37.2,68.2c0-5.5,4.4-9.9,9.9-9.9c5.5,0,9.9,4.4,9.9,9.9c0,5.5-4.4,9.9-9.9,9.9
				C41.6,78.2,37.2,73.7,37.2,68.2L37.2,68.2z"/>
			<path class="st3" d="M121.7,121.7c-1.2,5.2-3.7,9.7-7.4,13.6c-5.6,5.9-12.2,8.9-19.8,8.9c-3.4,0-6.6-0.6-9.5-1.8
				c-2.9-1.2-5.8-3.2-8.7-5.9v6.3H61.5V60.8h14.8v29.3c2.7-2.7,5.6-4.7,8.7-6c3.1-1.3,6.4-2,10-2c7.7,0,14.3,2.9,19.7,8.7
				c3.6,3.8,5.9,8.4,7.1,13.6c1.2-5.2,3.6-9.8,7.1-13.6c5.4-5.8,12-8.7,19.7-8.7c3.6,0,6.9,0.7,10,2c3.1,1.3,6,3.3,8.6,6v-6.5H182
				v59.1h-14.8v-6.3c-2.9,2.7-5.8,4.7-8.7,5.9c-2.9,1.2-6.1,1.8-9.5,1.8c-7.6,0-14.3-3-19.8-8.9C125.5,131.5,123,126.8,121.7,121.7
				L121.7,121.7z M91.8,95.8c-4.7,0-8.5,1.6-11.6,4.8c-3.1,3.2-4.6,7.3-4.6,12.5c0,5.2,1.5,9.5,4.6,12.7c3.1,3.2,6.9,4.9,11.6,4.9
				c4.5,0,8.3-1.6,11.4-4.9c3.1-3.3,4.6-7.5,4.6-12.6c0-5.1-1.5-9.2-4.6-12.5C100.3,97.4,96.5,95.8,91.8,95.8L91.8,95.8z
				 M151.6,95.8c-4.6,0-8.4,1.6-11.4,4.9c-3,3.2-4.6,7.4-4.6,12.5c0,5.1,1.5,9.3,4.6,12.6c3.1,3.3,6.9,4.9,11.4,4.9
				c4.7,0,8.5-1.6,11.6-4.9c3.1-3.2,4.6-7.5,4.6-12.7c0-5.1-1.5-9.3-4.6-12.5C160.2,97.4,156.3,95.8,151.6,95.8L151.6,95.8z"/>
		</g>
	</g>
</g>
<g>
	<g>
		<path class="st1" d="M267.5,102.7c0,7.5-4.3,11.5-11.7,11.5c-7.7,0-12.2-3.6-12.2-11.5V83.6h4v19.1c0,5.3,3,8.1,8.3,8.1
			c5,0,7.8-2.9,7.8-8.1V83.6h4V102.7z"/>
		<path class="st1" d="M276.2,83.6h4.2l15.7,24.2h0.1V83.6h3.8v29.8h-4.3L280,89.5h-0.1v23.9h-3.8L276.2,83.6L276.2,83.6z"/>
		<path class="st1" d="M308.8,83.6h4v29.8h-4V83.6z"/>
		<path class="st1" d="M333.5,113.5H329l-10.5-29.8h4.3l8.5,25.9h0.1l8.6-25.9h4.1L333.5,113.5z"/>
		<path class="st1" d="M349.6,83.6h20.6V87h-16.6v9.5h15.5v3.3h-15.5v10.3h16.8v3.3h-20.7V83.6z"/>
		<path class="st1" d="M377.5,83.6h14c5.6,0,9.1,3.1,9.1,7.8c0,3.6-1.6,6.6-5.2,7.6v0.1c3.5,0.7,4.2,3.2,4.5,6.1
			c0.2,2.9,0.1,6.2,1.8,8.2h-4.4c-1.1-1.2-0.5-4.4-1.1-7.4c-0.4-2.9-1.1-5.4-5-5.4h-9.7v12.7h-4L377.5,83.6L377.5,83.6z M389.7,97.4
			c3.7,0,6.9-1,6.9-5.3c0-2.9-1.6-5.1-5.3-5.1h-9.9v10.4H389.7z"/>
		<path class="st1" d="M425.7,92.4c-0.5-4.3-3.3-6.1-7.4-6.1c-3.3,0-6.7,1.2-6.7,5.1c0,3.7,4.8,4.2,9.6,5.3c4.8,1.1,9.5,2.8,9.5,8.6
			c0,6.4-6.2,8.9-11.7,8.9c-6.7,0-12.3-3.3-12.3-10.5h3.8c0,5,4.2,7.2,8.7,7.2c3.6,0,7.6-1.1,7.6-5.4c0-4.1-4.8-4.8-9.5-5.8
			c-4.8-1-9.6-2.4-9.6-7.9c0-6.1,5.4-8.7,10.8-8.7c6.1,0,10.7,2.9,11,9.4C429.4,92.4,425.7,92.4,425.7,92.4z"/>
		<path class="st1" d="M437.9,83.6h4v29.8h-4V83.6z"/>
		<path class="st1" d="M457.7,87h-9.9v-3.3h23.9V87h-9.9v26.5h-4L457.7,87L457.7,87z"/>
		<path class="st1" d="M489.5,101.3v12.2h-4v-12.2L474,83.6h4.7l8.9,14.2l8.7-14.2h4.5L489.5,101.3z"/>
	</g>
	<g>
		<path class="st1" d="M248.6,131c3.7,0,5.6,2.7,5.6,6c0,3.4-1.9,6-5.6,6c-3.7,0-5.6-2.7-5.6-6C243,133.7,244.9,131,248.6,131z
			 M248.6,141.4c2,0,3.6-1.6,3.6-4.3c0-2.8-1.6-4.4-3.6-4.4s-3.6,1.6-3.6,4.4C245,139.9,246.6,141.4,248.6,141.4z"/>
		<path class="st1" d="M257.4,133h-1.9v-1.7h1.9v-1.7c0-1.9,1.1-2.9,3.2-2.9c0.4,0,0.9,0.1,1.2,0.2v1.7c-0.3-0.1-0.7-0.2-1.1-0.2
			c-0.9,0-1.4,0.3-1.4,1.3v1.6h2.2v1.7h-2.2v9.9h-1.9L257.4,133L257.4,133z"/>
		<path class="st1" d="M281.3,131.7c-0.4-2.3-2.3-3.4-4.5-3.4c-3.8,0-5.4,3.1-5.4,6.4c0,3.6,1.6,6.7,5.4,6.7c2.8,0,4.4-2,4.6-4.6
			h2.1c-0.4,4-2.9,6.4-6.9,6.4c-5,0-7.4-3.7-7.4-8.3c0-4.6,2.6-8.4,7.5-8.4c3.3,0,6.1,1.8,6.6,5.2L281.3,131.7L281.3,131.7z"/>
		<path class="st1" d="M291.1,131c3.7,0,5.6,2.7,5.6,6c0,3.4-1.9,6-5.6,6c-3.7,0-5.6-2.7-5.6-6C285.5,133.7,287.5,131,291.1,131z
			 M291.1,141.4c2,0,3.6-1.6,3.6-4.3c0-2.8-1.6-4.4-3.6-4.4s-3.6,1.6-3.6,4.4C287.5,139.9,289.1,141.4,291.1,141.4z"/>
		<path class="st1" d="M304.1,131c3.7,0,5.6,2.7,5.6,6c0,3.4-1.9,6-5.6,6c-3.7,0-5.6-2.7-5.6-6C298.5,133.7,300.5,131,304.1,131z
			 M304.1,141.4c2,0,3.6-1.6,3.6-4.3c0-2.8-1.6-4.4-3.6-4.4s-3.6,1.6-3.6,4.4C300.5,139.9,302.1,141.4,304.1,141.4z"/>
		<path class="st1" d="M312.2,131.3h1.9v1.6h0c0.6-1.3,2.1-1.8,3.7-1.8c3.5,0,5.3,2.8,5.3,6.1s-1.7,6-5.3,6c-1.2,0-2.9-0.4-3.7-1.8
			h0v6h-1.9V131.3z M317.6,132.7c-2.5,0-3.5,2.2-3.5,4.4c0,2.3,1,4.4,3.6,4.4c2.6,0,3.5-2.2,3.5-4.5
			C321.1,134.8,320,132.7,317.6,132.7z"/>
		<path class="st1" d="M335.4,139.2c-0.5,2.5-2.3,3.9-4.9,3.9c-3.7,0-5.4-2.5-5.5-6.1c0-3.5,2.3-6,5.4-6c4.1,0,5.3,3.8,5.2,6.6H327
			c-0.1,2,1.1,3.8,3.6,3.8c1.6,0,2.7-0.8,3-2.3H335.4z M333.6,136c-0.1-1.8-1.4-3.3-3.3-3.3c-2,0-3.2,1.5-3.3,3.3H333.6z"/>
		<path class="st1" d="M337.7,131.3h1.8v2.4h0c0.9-1.9,2.2-2.8,4.2-2.7v2c-3.1,0-4.2,1.7-4.2,4.7v5.1h-1.9V131.3z"/>
		<path class="st1" d="M355.6,142.8c-0.3,0.2-0.8,0.3-1.4,0.3c-1,0-1.6-0.5-1.6-1.8c-1,1.2-2.5,1.8-4.1,1.8c-2.1,0-3.8-0.9-3.8-3.2
			c0-2.6,1.9-3.2,3.9-3.5c2.1-0.4,3.9-0.3,3.9-1.7c0-1.7-1.4-1.9-2.6-1.9c-1.6,0-2.8,0.5-2.9,2.2h-1.9c0.1-2.9,2.3-3.9,4.9-3.9
			c2.1,0,4.3,0.5,4.3,3.2v5.9c0,0.9,0,1.3,0.6,1.3c0.2,0,0.3,0,0.6-0.1L355.6,142.8L355.6,142.8z M352.5,136.9
			c-0.7,0.5-2.2,0.6-3.4,0.8c-1.2,0.2-2.3,0.7-2.3,2.1c0,1.2,1.1,1.7,2.2,1.7c2.5,0,3.5-1.6,3.5-2.6L352.5,136.9L352.5,136.9z"/>
		<path class="st1" d="M360.2,131.3h2.3v1.7h-2.3v7.2c0,0.9,0.2,1,1.4,1h0.9v1.7h-1.4c-2,0-2.7-0.4-2.7-2.5V133h-2v-1.7h2v-3.5h1.9
			L360.2,131.3L360.2,131.3z"/>
		<path class="st1" d="M366.8,129.2h-1.9v-2.3h1.9V129.2z M364.9,131.3h1.9v11.5h-1.9V131.3z"/>
		<path class="st1" d="M375.2,142.8h-2l-4.3-11.5h2.1l3.2,9.6h0l3.1-9.6h2L375.2,142.8z"/>
		<path class="st1" d="M391.2,139.2c-0.5,2.5-2.3,3.9-4.9,3.9c-3.7,0-5.4-2.5-5.5-6.1c0-3.5,2.3-6,5.4-6c4.1,0,5.3,3.8,5.2,6.6h-8.6
			c-0.1,2,1.1,3.8,3.6,3.8c1.6,0,2.7-0.8,3-2.3H391.2z M389.3,136c-0.1-1.8-1.4-3.3-3.3-3.3c-2,0-3.2,1.5-3.3,3.3H389.3z"/>
		<path class="st1" d="M400.2,126.9h11v1.8h-8.9v5.1h8.3v1.8h-8.3v5.5h8.9v1.8h-11.1V126.9z"/>
		<path class="st1" d="M424.1,142.8h-1.9v-1.6h0c-0.6,1.3-2.1,1.8-3.7,1.8c-3.5,0-5.3-2.8-5.3-6.1c0-3.3,1.7-6,5.3-6
			c1.2,0,2.9,0.4,3.7,1.8h0v-5.9h1.9V142.8z M418.7,141.4c2.5,0,3.5-2.2,3.5-4.3c0-2.3-1-4.4-3.6-4.4c-2.6,0-3.5,2.2-3.5,4.5
			C415.1,139.3,416.3,141.4,418.7,141.4z"/>
		<path class="st1" d="M436.7,142.8H435V141h0c-0.8,1.4-2.1,2.1-3.7,2.1c-3,0-4-1.7-4-4.2v-7.6h1.9v7.8c0,1.4,0.9,2.3,2.3,2.3
			c2.3,0,3.4-1.5,3.4-3.6v-6.5h1.9L436.7,142.8L436.7,142.8z"/>
		<path class="st1" d="M447.6,135c-0.3-1.4-1.3-2.3-2.9-2.3c-2.7,0-3.6,2.2-3.6,4.5c0,2.1,1,4.2,3.4,4.2c1.8,0,2.9-1.1,3.2-2.8h1.9
			c-0.4,2.8-2.2,4.5-5.1,4.5c-3.5,0-5.4-2.5-5.4-5.9c0-3.5,1.8-6.2,5.4-6.2c2.6,0,4.7,1.2,5,4L447.6,135L447.6,135z"/>
		<path class="st1" d="M462.2,142.8c-0.3,0.2-0.8,0.3-1.4,0.3c-1,0-1.6-0.5-1.6-1.8c-1,1.2-2.5,1.8-4.1,1.8c-2.1,0-3.8-0.9-3.8-3.2
			c0-2.6,1.9-3.2,3.9-3.5c2.1-0.4,3.9-0.3,3.9-1.7c0-1.7-1.4-1.9-2.6-1.9c-1.6,0-2.8,0.5-2.9,2.2h-1.9c0.1-2.9,2.3-3.9,4.9-3.9
			c2.1,0,4.3,0.5,4.3,3.2v5.9c0,0.9,0,1.3,0.6,1.3c0.2,0,0.3,0,0.6-0.1L462.2,142.8L462.2,142.8z M459.1,136.9
			c-0.7,0.5-2.2,0.6-3.4,0.8c-1.2,0.2-2.3,0.7-2.3,2.1c0,1.2,1.1,1.7,2.2,1.7c2.5,0,3.5-1.6,3.5-2.6L459.1,136.9L459.1,136.9z"/>
		<path class="st1" d="M466.8,131.3h2.3v1.7h-2.3v7.2c0,0.9,0.2,1,1.4,1h0.9v1.7h-1.4c-2,0-2.7-0.4-2.7-2.5V133h-2v-1.7h2v-3.5h1.9
			L466.8,131.3L466.8,131.3z"/>
		<path class="st1" d="M473.4,129.2h-1.9v-2.3h1.9V129.2z M471.5,131.3h1.9v11.5h-1.9V131.3z"/>
		<path class="st1" d="M481.5,131c3.7,0,5.6,2.7,5.6,6c0,3.4-1.9,6-5.6,6c-3.7,0-5.6-2.7-5.6-6C475.9,133.7,477.9,131,481.5,131z
			 M481.5,141.4c2,0,3.6-1.6,3.6-4.3c0-2.8-1.6-4.4-3.6-4.4s-3.6,1.6-3.6,4.4C477.9,139.9,479.5,141.4,481.5,141.4z"/>
		<path class="st1" d="M489.6,131.3h1.8v1.8h0c0.8-1.4,2.1-2.1,3.7-2.1c3,0,4,1.7,4,4.2v7.6h-1.9V135c0-1.4-0.9-2.3-2.3-2.3
			c-2.3,0-3.4,1.5-3.4,3.6v6.5h-1.9L489.6,131.3L489.6,131.3z"/>
	</g>
</g>
</svg>
