<?xml version="1.0" encoding="utf-8"?>
<!-- Generator: Adobe Illustrator 24.0.1, SVG Export Plug-In . SVG Version: 6.00 Build 0)  -->
<!DOCTYPE svg PUBLIC "-//W3C//DTD SVG 1.1//EN" "http://www.w3.org/Graphics/SVG/1.1/DTD/svg11.dtd" [
	<!ENTITY ns_extend "http://ns.adobe.com/Extensibility/1.0/">
	<!ENTITY ns_ai "http://ns.adobe.com/AdobeIllustrator/10.0/">
	<!ENTITY ns_graphs "http://ns.adobe.com/Graphs/1.0/">
	<!ENTITY ns_vars "http://ns.adobe.com/Variables/1.0/">
	<!ENTITY ns_imrep "http://ns.adobe.com/ImageReplacement/1.0/">
	<!ENTITY ns_sfw "http://ns.adobe.com/SaveForWeb/1.0/">
	<!ENTITY ns_custom "http://ns.adobe.com/GenericCustomNamespace/1.0/">
	<!ENTITY ns_adobe_xpath "http://ns.adobe.com/XPath/1.0/">
]>
<svg version="1.1" id="Ebene_1" xmlns:x="&ns_extend;" xmlns:i="&ns_ai;" xmlns:graph="&ns_graphs;"
	 xmlns="http://www.w3.org/2000/svg" xmlns:xlink="http://www.w3.org/1999/xlink" x="0px" y="0px" viewBox="0 0 400 400"
	 style="enable-background:new 0 0 400 400;" xml:space="preserve">
<style type="text/css">
	.st0{fill:#E94C0A;}
</style>
<metadata>
	<sfw  xmlns="&ns_sfw;">
		<slices></slices>
		<sliceSourceBounds  bottomLeftOrigin="true" height="351.4333" width="250.3725" x="74.8138" y="-378.2777"></sliceSourceBounds>
	</sfw>
</metadata>
<g>
	<g>
		<path class="st0" d="M204.6547,274.9572l0.0041,25.8655h86.4262c9.3294,0,17.8499-3.8365,24.038-10.0054l0.0193-0.0366
			l0.0366-0.0193c6.1689-6.1881,10.0073-14.7086,10.0073-24.038V88.2712v-5.4909l-4.0253-3.7999l-51.196-48.5825l-3.7614-3.5534
			h-5.0788H141.3913c-9.3852,0-17.9057,3.8173-24.0746,10.0054c-6.1689,6.1496-10.0054,14.6893-10.0054,24.0746v60.2232
			c10.2262-8.3026,25.7097-8.5258,25.7097-8.5258V60.9244c0-2.2958,0.9399-4.3835,2.4633-5.9069
			c1.5234-1.5236,3.6112-2.4826,5.9069-2.4826h106.0591l-0.5836,7.9754l-0.807,10.9472c-0.8089,3.5727-0.7165,6.9776,0.0558,10.1362
			c1.223,5.0597,4.1004,9.3295,7.7674,12.5459c3.5168,3.1027,7.881,5.3234,12.1682,6.3942
			c3.3107,0.8089,6.6581,0.9784,9.7242,0.3581l11.2284-1.3923l12.4706-1.56v168.784c0,2.3323-0.9399,4.4201-2.4267,5.9261
			l-0.0558,0.0367c-1.4869,1.4868-3.5746,2.4267-5.9069,2.4267L204.6547,274.9572z M291.3123,86.0139l-5.8684,0.7145
			l-11.2669,1.4117l-0.1695,0.0193l-0.545,0.131c-1.1846,0.2812-2.7079,0.1887-4.345-0.208
			c-2.3497-0.5816-4.7571-1.8239-6.7524-3.5727c-1.8432-1.6371-3.2722-3.6497-3.798-5.8877c-0.339-1.3905-0.3582-2.9718,0.075-4.682
			l0.131-0.547l0.0385-0.5258l0.8455-11.4537l0.3755-5.0788L291.3123,86.0139z"/>
	</g>
	<g>
		<g>
			<path class="st0" d="M109.0077,274.4806c0,0,19.3642,8.4471,39.3964,8.4471c17.8737,0,38.5523-8.4471,38.5523-8.4471v103.7971
				l-39.2559-38.1298l-38.6928,38.1298V274.4806L109.0077,274.4806z"/>
		</g>
		<g>
			<path class="st0" d="M147.9826,124.7716c-40.4112,0-73.1688,32.7352-73.1688,73.1677c0,40.4112,32.7576,73.1688,73.1688,73.1688
				c40.4325,0,73.1677-32.7576,73.1677-73.1688C221.1503,157.5068,188.4151,124.7716,147.9826,124.7716z M147.9826,225.7112
				c-15.3297,0-27.7507-12.4422-27.7507-27.7719c0-15.3286,12.421-27.7495,27.7507-27.7495
				c15.3286,0,27.7496,12.421,27.7496,27.7495C175.7321,213.269,163.3112,225.7112,147.9826,225.7112z"/>
		</g>
	</g>
</g>
</svg>
