<?xml version="1.0" encoding="utf-8"?>
<!-- Generator: Adobe Illustrator 19.1.0, SVG Export Plug-In . SVG Version: 6.00 Build 0)  -->
<svg version="1.1" id="Ebene_1" xmlns="http://www.w3.org/2000/svg" xmlns:xlink="http://www.w3.org/1999/xlink" x="0px" y="0px"
	 viewBox="0 0 708.7 200.7" xml:space="preserve">
<style type="text/css">
	.st0{fill:url(#SVGID_2_);}
	.st1{fill:#007A50;}
</style>
<linearGradient id="SVGID_2_" gradientUnits="userSpaceOnUse" x1="507.1367" y1="100.8677" x2="703.667" y2="100.8677">
	<stop  offset="0" style="stop-color:#FC7C00"/>
	<stop  offset="1" style="stop-color:#F29000"/>
</linearGradient>
<path class="st0" d="M703.7,100.9c0,54.3-44,98.3-98.3,98.3c-54.3,0-98.3-44-98.3-98.3c0-54.3,44-98.3,98.3-98.3
	c5.2,0,10.4,0.4,15.4,1.2c-15.7,21.7-40.6,56.6-46.5,68c-5.2,10-7.8,19.8-7.8,29.5c0,14.9,4.6,26.8,13.9,35.7
	c9.3,8.9,21.7,13.3,37.4,13.3c15.3,0,27.9-4.9,37.7-14.7c9.8-9.8,14.7-22.3,14.7-37.6c0-12.6-3.6-22.7-10.7-30.4
	c-7.1-7.7-16.5-11.5-28.3-11.5c-1.6,0-3.1,0.1-4.5,0.2c-1.5,0.2-2.9,0.4-4.3,0.6L653,14.9C683.2,31.6,703.7,63.9,703.7,100.9z
	 M603.6,115.8c4.1,4.1,9,6.2,14.7,6.2c5.7,0,10.6-2,14.6-6c4-4,6-9,6-14.8c0-5.9-2-10.9-5.9-14.8c-4-4-8.9-5.9-14.7-5.9
	c-5.7,0-10.6,2-14.7,6.1c-4.1,4.1-6.1,9-6.1,14.6C597.5,106.8,599.5,111.7,603.6,115.8z"/>
<g>
	<path class="st1" d="M2,184.7L21.9,59.5h28.9l-1.9,12c4.3-4.9,9-8.6,14.1-11.1c5.1-2.5,10.5-3.7,16.3-3.7c10,0,18.2,3.7,24.6,11.2
		c6.4,7.5,9.5,17.2,9.5,29.1c0,15-4.3,27.5-12.9,37.4c-8.6,9.9-19.5,14.9-32.5,14.9c-5.8,0-11.1-1.2-15.9-3.7
		c-4.7-2.5-9.2-6.4-13.4-11.6c0,2.8-0.1,5.3-0.2,7.6c-0.1,2.3-0.4,4.3-0.6,6.1l-5.7,37H2z M82,101c0-5.6-1.7-10-5.1-13.4
		c-3.4-3.4-7.9-5.1-13.4-5.1c-6.1,0-11.2,2.4-15.3,7.1c-4,4.7-6.1,10.6-6.1,17.7c0,5.4,1.7,9.7,5.1,13c3.4,3.3,7.8,4.9,13.2,4.9
		c6.3,0,11.4-2.3,15.4-6.8C80,113.8,82,108,82,101z"/>
	<path class="st1" d="M114.2,146.4l21.3-133.3h30.1l-7.7,46.8c-0.3,2.3-0.7,4.5-1.2,6.8c-0.4,2.2-0.9,4.4-1.5,6.5
		c4.8-5.7,9.5-9.9,14.2-12.5c4.7-2.6,9.8-3.9,15.4-3.9c9,0,16,2.4,20.9,7.3c5,4.8,7.4,11.6,7.4,20.3c0,3-0.5,7.9-1.5,14.9
		c-0.1,0.6-0.1,1.1-0.2,1.5l-7.2,45.6h-30.7l7.2-46c0.2-1.3,0.4-2.6,0.6-3.9c0.1-1.3,0.2-2.4,0.2-3.3c0-3.8-1-6.7-3-8.6
		c-2-1.9-5-2.9-8.9-2.9c-5.3,0-9.5,1.9-12.5,5.8c-3,3.8-5.2,10-6.5,18.4l-6.2,40.5H114.2z"/>
	<path class="st1" d="M283.7,134.8c-4.2,4.9-8.8,8.6-14,11.1c-5.1,2.5-10.7,3.7-16.6,3.7c-10,0-18.2-3.8-24.6-11.3
		c-6.4-7.5-9.6-17.3-9.6-29.2c0-15,4.3-27.5,13-37.4c8.7-9.9,19.5-14.9,32.4-14.9c6,0,11.4,1.2,16.2,3.7c4.8,2.5,9.1,6.4,12.9,11.6
		l2-12.6h29.1l-13.8,86.9h-28.6L283.7,134.8z M249.9,106c0,5.6,1.7,10,5.1,13.4c3.4,3.4,7.9,5.1,13.4,5.1c6.1,0,11.1-2.4,15.2-7.1
		c4-4.7,6.1-10.6,6.1-17.8c0-5.4-1.7-9.8-5.1-13.1c-3.4-3.4-7.8-5-13.2-5c-6.2,0-11.3,2.3-15.4,7C251.9,93.1,249.9,99,249.9,106z"/>
	<path class="st1" d="M396.2,65.9l-8.9,19.5c-4-2.8-7.6-4.9-10.9-6.1c-3.3-1.3-6.6-1.9-9.9-1.9c-2.8,0-5,0.6-6.8,1.9
		c-1.8,1.3-2.7,2.8-2.7,4.6c0,2.6,3,5.1,8.9,7.4c2.6,1,4.7,1.8,6.2,2.5c8.3,3.6,14.1,7.4,17.5,11.2c3.3,3.9,5,8.7,5,14.5
		c0,9.1-3.5,16.4-10.6,22c-7.1,5.5-16.5,8.3-28.2,8.3c-6.7,0-13-0.9-19-2.6c-6.1-1.7-11.9-4.4-17.6-8l10.2-20.8
		c5.8,3.6,10.7,6.2,14.7,7.7c4,1.5,7.7,2.2,11.2,2.2c3,0,5.5-0.7,7.3-2c1.8-1.3,2.8-3.1,2.8-5.2c0-3.3-4.2-6.6-12.6-10.1
		c-2.5-1-4.5-1.8-5.8-2.4c-6.7-3-11.5-6.2-14.3-9.7c-2.8-3.5-4.2-7.9-4.2-13.1c0-8.3,3.5-15.2,10.4-20.7c6.9-5.5,15.9-8.3,26.7-8.3
		c5.5,0,10.9,0.8,16.1,2.3C386.7,60.6,391.6,62.9,396.2,65.9z"/>
	<path class="st1" d="M429.5,110.3v2c0,5.5,1.4,9.7,4.2,12.6c2.8,2.9,6.9,4.3,12.3,4.3c3.8,0,7.4-0.8,10.7-2.4
		c3.4-1.6,7-4.1,10.8-7.6l16.5,16.7c-4.9,4.7-10.6,8.2-17.1,10.6c-6.5,2.3-13.7,3.5-21.6,3.5c-14.2,0-25.2-3.8-33-11.3
		c-7.8-7.5-11.7-18.1-11.7-31.7c0-14.8,4.7-26.9,14-36.2c9.3-9.3,21.4-13.9,36.2-13.9c13.4,0,24.2,4.1,32.4,12.3
		c8.2,8.2,12.3,19.1,12.3,32.6c0,1.2-0.2,3.4-0.5,6.5c-0.1,1-0.2,1.7-0.3,2.1H429.5z M466.7,92.6c-0.3-4.7-1.9-8.4-4.7-11.2
		c-2.9-2.8-6.7-4.1-11.4-4.1c-4.2,0-8,1.3-11.4,4c-3.4,2.7-5.9,6.5-7.6,11.3H466.7z"/>
</g>

<g>
</g>
<g>
</g>
<g>
</g>
<g>
</g>
<g>
</g>
<g>
</g>
</svg>
